<svg xmlns="http://www.w3.org/2000/svg" xmlns:xlink="http://www.w3.org/1999/xlink" id="Layer_1" x="0" y="0" version="1.1" viewBox="0 0 24 24" xml:space="preserve"><path fill="#68B345" d="M21.17 13.658l-1.446-.723a.5.5 0 0 0-.447.895l.223.11v5.883l-.224.112a.5.5 0 0 0 .448.894l1.447-.724c.512-.255.829-.77.829-1.34V15c0-.572-.317-1.086-.83-1.342z"/><path fill="#68B345" d="M21.17 13.658l-1.446-.723a.496.496 0 0 0-.224-.047v7.994a.504.504 0 0 0 .224-.053l1.447-.724c.512-.255.829-.77.829-1.34V15c0-.572-.317-1.086-.83-1.342z"/><path fill="#FCB539" d="M21.17 8.526l-1.446-.723a.496.496 0 0 0-.224-.047v7.994a.504.504 0 0 0 .224-.053l1.447-.723c.512-.256.829-.77.829-1.342V9.868c0-.572-.317-1.086-.83-1.342z"/><linearGradient id="SVGID_1_" x1="20.823" x2="21.612" y1="14.844" y2="15.634" gradientUnits="userSpaceOnUse"><stop offset="0" stop-color="#010101" stop-opacity=".1"/><stop offset="1" stop-color="#010101" stop-opacity="0"/></linearGradient><path fill="url(#SVGID_1_)" d="M21.17 14.974l-1.165.583H22V15c0-.246-.069-.476-.176-.684a1.482 1.482 0 0 1-.653.658z"/><path fill="#8C2C8E" d="M21.17 3.895l-1.446-.724a.496.496 0 0 0-.224-.047v7.994a.504.504 0 0 0 .224-.053l1.447-.723c.512-.256.829-.77.829-1.342V5.236c0-.572-.317-1.086-.83-1.341z"/><linearGradient id="SVGID_2_" x1="20.91" x2="21.701" y1="10.123" y2="10.915" gradientUnits="userSpaceOnUse"><stop offset="0" stop-color="#010101" stop-opacity=".1"/><stop offset="1" stop-color="#010101" stop-opacity="0"/></linearGradient><path fill="url(#SVGID_2_)" d="M21.17 10.342l-1.17.585h2V9.868c0-.15-.024-.295-.066-.434-.117.39-.386.72-.763.908z"/><path fill="#010101" d="M21.17 19.855l-1.446.724a.504.504 0 0 1-.224.053v.25a.504.504 0 0 0 .224-.053l1.447-.724c.512-.255.829-.77.829-1.34v-.25c0 .57-.317 1.085-.83 1.34z" opacity=".1"/><path fill="#010101" d="M21.17 14.724l-1.446.723a.504.504 0 0 1-.224.053v.25a.504.504 0 0 0 .224-.053l1.447-.723c.512-.256.829-.77.829-1.342v-.25c0 .572-.317 1.086-.83 1.342z" opacity=".1"/><path fill="#010101" d="M21.17 10.092l-1.446.723a.504.504 0 0 1-.224.053v.25a.504.504 0 0 0 .224-.053l1.447-.723c.512-.256.829-.77.829-1.342v-.25c0 .572-.317 1.086-.83 1.342z" opacity=".1"/><path fill="#FFF" d="M21.17 3.895l-1.446-.724a.502.502 0 0 0-.671.224.496.496 0 0 0-.03.36c.009-.037.012-.075.03-.11a.502.502 0 0 1 .67-.224l1.448.724c.512.255.829.77.829 1.34v-.25c0-.57-.317-1.085-.83-1.34z" opacity=".2"/><path fill="#2D98D4" d="M18 0H5.5v24H18c1.103 0 2-.897 2-2V2c0-1.103-.897-2-2-2z"/><path fill="#0377BE" d="M4 0C2.897 0 2 .897 2 2v20c0 1.103.897 2 2 2h1.5V0H4z"/><path fill="#FFF" d="M18 0H4a2 2 0 0 0-2 2v.25a2 2 0 0 1 2-2h14a2 2 0 0 1 2 2V2a2 2 0 0 0-2-2z" opacity=".2"/><path fill="#010101" d="M18 23.75H4a2 2 0 0 1-2-2V22a2 2 0 0 0 2 2h14a2 2 0 0 0 2-2v-.25a2 2 0 0 1-2 2z" opacity=".1"/><circle cx="12.5" cy="9.5" r="2.5" fill="#FFF"/><path fill="#FFF" d="M15.92 13.532c-.798-.471-2.04-1.032-3.42-1.032s-2.622.561-3.42 1.032C8.414 13.925 8 14.688 8 15.523V17h9v-1.477c0-.835-.414-1.598-1.08-1.991z"/><linearGradient id="SVGID_3_" x1="10.934" x2="19.178" y1="12.166" y2="20.41" gradientUnits="userSpaceOnUse"><stop offset="0" stop-color="#010101" stop-opacity=".1"/><stop offset="1" stop-color="#010101" stop-opacity="0"/></linearGradient><path fill="url(#SVGID_3_)" d="M14.268 7.732l-.001.001C14.72 8.186 15 8.811 15 9.5c0 1.378-1.122 2.5-2.5 2.5-.69 0-1.314-.28-1.767-.733l1.278 1.28c.163-.016.32-.047.489-.047 1.38 0 2.622.561 3.42 1.032.666.393 1.08 1.156 1.08 1.991V17H8l7 7h3c1.103 0 2-.897 2-2v-8.536l-5.732-5.732z"/><linearGradient id="SVGID_4_" x1="-.393" x2="22.755" y1="6.688" y2="17.481" gradientUnits="userSpaceOnUse"><stop offset="0" stop-color="#FFF" stop-opacity=".2"/><stop offset="1" stop-color="#FFF" stop-opacity="0"/></linearGradient><path fill="url(#SVGID_4_)" d="M22 5.236c0-.572-.317-1.086-.83-1.341L20 3.309V2c0-1.103-.897-2-2-2H4C2.897 0 2 .897 2 2v20c0 1.103.897 2 2 2h14c1.103 0 2-.897 2-2v-1.31l1.17-.585c.513-.255.83-.77.83-1.34V15c0-.246-.069-.476-.176-.684.107-.209.176-.438.176-.684V9.868c0-.15-.024-.295-.066-.434C21.976 9.295 22 9.15 22 9V5.236z"/><metadata><rdf:RDF xmlns:dc="http://purl.org/dc/elements/1.1/" xmlns:rdf="http://www.w3.org/1999/02/22-rdf-syntax-ns#" xmlns:rdfs="http://www.w3.org/2000/01/rdf-schema#"><rdf:Description about="https://iconscout.com/legal#licenses" dc:date="2017-10-09" dc:description="phone,office,notebook,book,contact,address" dc:format="image/svg+xml" dc:language="en" dc:publisher="Iconscout" dc:title="phone,office,notebook,book,contact,address"><dc:creator><rdf:Bag><rdf:li>Those Icons</rdf:li></rdf:Bag></dc:creator></rdf:Description></rdf:RDF></metadata></svg>